<?xml version="1.0" standalone="no"?><!DOCTYPE svg PUBLIC "-//W3C//DTD SVG 1.1//EN" "http://www.w3.org/Graphics/SVG/1.1/DTD/svg11.dtd"><svg t="1496072008522" class="icon" style="" viewBox="0 0 1024 1024" version="1.1" xmlns="http://www.w3.org/2000/svg" p-id="4753" xmlns:xlink="http://www.w3.org/1999/xlink" width="200" height="200"><defs><style type="text/css"></style></defs><path d="M941.372684 228.963604A356.735569 356.735569 0 0 0 876.153712 136.188947c-11.223848-11.512843-24.351451-20.684825-39.01434-26.916282S806.971894 99.703314 791.091613 99.703314h-120.167781c-36.20025-21.31339-78.22014-33.931639-122.125723-35.665609C497.794084 62.029189 448.249484 74.777486 406.442728 99.703314H287.911382c-53.85424 0-98.872453 7.885954-133.80835 23.097935-31.861711 13.871765-55.974741 34.177285-71.667176 60.176007-10.215977 16.913439-16.053679 39.910225-17.852673 70.218588-1.372727 23.144896-0.32512 50.671681 3.117535 81.77478 6.000261 54.211871 18.098319 108.918646 26.634512 139.284808 0.570765 2.030191 1.163205 4.157917 1.780932 6.365117 7.546385 26.992144 18.954467 67.787416 35.228505 105.197834 21.31339 48.981059 45.448094 79.802388 73.79129 94.223245 10.710881 5.45117 21.981691 8.478394 33.494534 8.99136q1.773708 0.079474 3.558252 0.079474c10.837317 0 21.89138-2.2072 32.873194-6.578251 23.339968-9.280356 42.839913-27.021043 54.909072-49.956418l7.224878-13.727268q4.13263 3.771386 8.550643 7.347701c12.014972 9.713848 25.59413 18.286166 40.589363 25.648316a250.450391 250.450391 0 0 1-32.396352 22.559681c-1.083732 0.639402-2.203588 1.278803-3.305382 1.900143-18.148893 10.244877-28.025301 30.45286-25.157024 51.484479s17.784037 37.721087 37.995632 42.47867a207.682726 207.682726 0 0 0 47.622783 5.559543 202.72646 202.72646 0 0 0 23.567551-1.372727 206.375023 206.375023 0 0 0 44.346301-10.252101V835.557123a127.934525 127.934525 0 0 0 9.688561 49.020797 125.795961 125.795961 0 0 0 26.323842 40.025823 121.977613 121.977613 0 0 0 39.04324 26.851258 119.286346 119.286346 0 0 0 47.832304 9.814997h0.115598c16.555808 0 32.634773-3.178946 47.785342-9.73191a122.169072 122.169072 0 0 0 39.093814-26.91267 125.687588 125.687588 0 0 0 26.396091-40.014986A127.757515 127.757515 0 0 0 725.016492 835.557123v-90.571068c4.334927 0.299832 8.846863 0.451555 13.326288 0.451555 21.009945 0 42.558143-3.287319 64.467585-9.847509 26.443053-7.918466 52.698259-20.334419 78.053967-36.908288 13.875378-9.070834 20.843773-25.648316 17.75875-42.200512s-15.533487-29.369128-31.724438-32.566137q-41.062593-8.11715-75.554161-24.961953L924.874676 416.514208a182.771347 182.771347 0 0 0 16.498008-187.550604zM256.12192 632.491094c-10.35325 4.114568-18.896668 3.952008-27.700182-0.527416-11.520068-5.859376-29.412478-22.415184-49.24838-68.004163-14.778488-33.956926-25.572455-72.573898-32.714247-98.121066q-0.935622-3.345118-1.806219-6.433754c-6.422916-22.841451-18.896668-76.020165-24.925829-130.463231-8.919112-80.593512 2.084377-109.11733 7.224878-117.639074 9.887245-16.378798 25.9048-29.575037 47.608333-39.01434C203.019068 159.904609 241.133911 153.528654 287.911382 153.528654h56.599693c-29.802621 36.485633-48.767925 82.627316-55.483449 135.152178-1.444976 11.310546-2.572057 23.119609-3.160884 35.040657l-0.119211 0.722488v199.677562l0.158948 0.997033c0.17701 2.442009 2.07354 22.808939 15.65631 48.301921l-17.700951 33.689605C277.699018 618.810788 267.865959 627.841885 256.12192 632.491094z m95.874129-77.129183c-10.645858-16.494396-13.149278-30.474535-13.871766-33.844941V351.490307h41.459962a38.707283 38.707283 0 0 0-0.552703 6.386792c0 18.235592 14.424469 33.154964 32.222955 33.154965s32.222955-14.717076 32.222955-32.952668c0-1.083732-0.054187-2.138564-0.155335-3.207846 22.230949 7.531935 38.324365 29.036784 38.338815 54.305795l0.021674 38.360489c0.0289 46.044147-11.780163 91.416379-34.144772 131.207394a260.247325 260.247325 0 0 1-21.335065 32.150706c-17.845448-6.805835-33.454797-15.363703-46.380103-25.500206-11.299709-8.87215-20.688438-18.965304-27.826617-30.033817z m76.775164 165.760372a153.962147 153.962147 0 0 1-46.27173-1.647272A304.492477 304.492477 0 0 0 438.994416 675.887323a94.114871 94.114871 0 0 1 29.903769 34.997308 158.752241 158.752241 0 0 1-40.126972 10.241265z m243.864915-7.177916V835.557123a72.248779 72.248779 0 0 1-20.72095 50.935389c-13.3299 13.644182-31.066975 20.952146-49.905844 20.952146h-0.065023a69.03732 69.03732 0 0 1-49.880557-20.984658A72.248779 72.248779 0 0 1 531.389766 835.557123v-81.236526c0-47.684194-21.985303-91.311619-57.603951-118.849241a314.368885 314.368885 0 0 0 19.124251-29.914606c26.945182-47.937065 41.181804-102.593265 41.142067-158.026141l-0.018062-38.353264a112.563597 112.563597 0 0 0-8.528968-43.143358 110.656229 110.656229 0 0 0-23.181021-35.214055c-9.926982-10.165403-21.494012-18.315065-34.375968-23.896284A105.483217 105.483217 0 0 0 425.837913 298.026211H340.652991c0.104761-0.722488 0.209521-1.560574 0.317894-2.416721 3.854472-30.059104 12.517101-57.224645 25.753077-80.90057a183.79728 183.79728 0 0 1 47.47106-55.519574c36.485633-28.505756 83.577387-43.121683 132.601796-41.181804 48.926873 1.929042 94.663962 20.182696 128.78706 51.376107a183.645558 183.645558 0 0 1 43.024148 58.810505c9.782485 21.129155 16.010329 44.548597 18.575161 69.83567h-24.145542c-27.320876 0-53.008929 11.068513-72.328252 30.864678s-29.957956 46.203094-29.957956 74.203108a265.839381 265.839381 0 0 0 21.501236 105.208671c14.32332 33.44396 34.892548 62.856437 61.140529 87.384898q9.031097 8.449495 18.730496 16.125927c-0.187847 0.209521-0.339569 0.42988-0.527416 0.639402-25.1498 27.77243-38.960154 63.820958-38.960154 101.487859z m9.204494-350.670284c2.405884 15.800808 15.739396 27.891641 31.832812 27.891641a31.843649 31.843649 0 0 0 24.600709-11.697077l-0.097536 143.757007v0.798349l0.046962 0.798349c0.773062 13.44911 0 26.070972-2.315573 37.721087q-3.681075-3.178946-7.224878-6.50239c-41.658646-38.927642-65.554929-94.6459-65.554929-152.867578a51.549503 51.549503 0 0 1 18.712433-39.899388z m106.259891 320.784577c-20.894347 6.256744-41.152904 8.687916-60.493902 7.289902a96.582167 96.582167 0 0 1 22.33571-42.399196c2.167463-2.405884 4.389113-5.014065 6.599926-7.824543q31.980922 17.339707 68.968684 27.93499a234.725444 234.725444 0 0 1-37.410418 15.013297z m118.849241-363.7726a127.15785 127.15785 0 0 1-23.97937 63.983518l-92.406187 126.254741 0.10476-184.841275a135.249713 135.249713 0 0 0-0.270933-17.63954v-0.09031C787.511686 247.892784 767.780544 195.071702 733.606872 153.528654h57.484741a66.205168 66.205168 0 0 1 25.984273 5.400597 67.574283 67.574283 0 0 1 22.035877 15.139731 303.314822 303.314822 0 0 1 55.414813 78.873992 128.089859 128.089859 0 0 1 12.423178 67.371986z" fill="#1aac19" p-id="4754"></path></svg>